# 3ds Max Wavefront OBJ Exporter v0.97b - (c)2007 guruware
# File Created: 12.01.2016 23:32:58

#
# object Plane001
#

v  2.5000 0.1500 -0.0000
v  3.7880 0.1500 -0.0000
v  3.7880 0.1500 -5.3333
v  2.5000 0.1500 -5.3333
v  -3.7880 0.1500 -0.0000
v  -2.5000 0.1500 -0.0000
v  -2.5000 0.1500 -5.3333
v  -3.7880 0.1500 -5.3333
v  2.5000 0.0000 -0.0000
v  0.0000 0.0000 -0.0000
v  0.0000 0.0000 5.3333
v  2.5000 0.0000 5.3333
v  2.5000 0.0000 -5.3333
v  7.0000 -3.1650 -0.0000
v  4.1423 0.0000 -0.0000
v  4.1423 0.0000 5.3333
v  7.0000 -3.1650 5.3333
v  -7.0000 -3.1650 -0.0000
v  -4.1423 0.0000 -0.0000
v  -4.1423 0.0000 -5.3333
v  -7.0000 -3.1650 -5.3333
v  -2.5000 0.0000 -0.0000
v  -2.5000 0.1500 5.3333
v  -2.5000 0.0000 5.3333
v  3.7880 0.1500 5.3333
v  2.5000 0.1500 32.0000
v  3.7880 0.1500 32.0000
v  3.7880 0.1500 26.6667
v  2.5000 0.1500 26.6667
v  3.7880 0.1500 21.3333
v  2.5000 0.1500 21.3333
v  3.7880 0.1500 16.0000
v  2.5000 0.1500 16.0000
v  3.7880 0.1500 10.6667
v  2.5000 0.1500 10.6667
v  2.5000 0.1500 5.3333
v  3.7880 0.1500 -32.0000
v  2.5000 0.1500 -32.0000
v  2.5000 0.1500 -26.6667
v  3.7880 0.1500 -26.6667
v  2.5000 0.1500 -21.3333
v  3.7880 0.1500 -21.3333
v  2.5000 0.1500 -16.0000
v  3.7880 0.1500 -16.0000
v  2.5000 0.1500 -10.6667
v  3.7880 0.1500 -10.6667
v  -3.7880 0.1500 32.0000
v  -2.5000 0.1500 32.0000
v  -2.5000 0.1500 26.6667
v  -3.7880 0.1500 26.6667
v  -2.5000 0.1500 21.3333
v  -3.7880 0.1500 21.3333
v  -2.5000 0.1500 16.0000
v  -3.7880 0.1500 16.0000
v  -2.5000 0.1500 10.6667
v  -3.7880 0.1500 10.6667
v  -3.7880 0.1500 5.3333
v  -2.5000 0.1500 -32.0000
v  -3.7880 0.1500 -32.0000
v  -3.7880 0.1500 -26.6667
v  -2.5000 0.1500 -26.6667
v  -3.7880 0.1500 -21.3333
v  -2.5000 0.1500 -21.3333
v  -3.7880 0.1500 -16.0000
v  -2.5000 0.1500 -16.0000
v  -3.7880 0.1500 -10.6667
v  -2.5000 0.1500 -10.6667
v  2.5000 -0.0000 -32.0000
v  0.0000 -0.0000 -32.0000
v  0.0000 -0.0000 -26.6667
v  2.5000 -0.0000 -26.6667
v  0.0000 0.0000 -21.3333
v  2.5000 0.0000 -21.3333
v  0.0000 0.0000 -16.0000
v  2.5000 0.0000 -16.0000
v  0.0000 0.0000 -10.6667
v  2.5000 0.0000 -10.6667
v  0.0000 0.0000 -5.3333
v  -2.5000 0.0000 32.0000
v  0.0000 0.0000 32.0000
v  0.0000 0.0000 26.6667
v  -2.5000 0.0000 26.6667
v  0.0000 0.0000 21.3333
v  -2.5000 0.0000 21.3333
v  0.0000 0.0000 16.0000
v  -2.5000 0.0000 16.0000
v  0.0000 0.0000 10.6667
v  -2.5000 0.0000 10.6667
v  2.5000 0.0000 32.0000
v  2.5000 0.0000 26.6667
v  2.5000 0.0000 21.3333
v  2.5000 0.0000 16.0000
v  2.5000 0.0000 10.6667
v  7.0000 -3.1650 -32.0000
v  4.1423 0.0000 -32.0000
v  4.1423 0.0000 -26.6667
v  7.0000 -3.1650 -26.6667
v  4.1423 0.0000 -21.3333
v  7.0000 -3.1650 -21.3333
v  4.1423 0.0000 -16.0000
v  7.0000 -3.1650 -16.0000
v  4.1423 0.0000 -10.6667
v  7.0000 -3.1650 -10.6667
v  4.1423 0.0000 -5.3333
v  7.0000 -3.1650 -5.3333
v  4.1423 0.0000 32.0000
v  7.0000 -3.1650 32.0000
v  7.0000 -3.1650 26.6667
v  4.1423 0.0000 26.6667
v  7.0000 -3.1650 21.3333
v  4.1423 0.0000 21.3333
v  7.0000 -3.1650 16.0000
v  4.1423 0.0000 16.0000
v  7.0000 -3.1650 10.6667
v  4.1423 0.0000 10.6667
v  -7.0000 -3.1650 32.0000
v  -4.1423 0.0000 32.0000
v  -4.1423 0.0000 26.6667
v  -7.0000 -3.1650 26.6667
v  -4.1423 0.0000 21.3333
v  -7.0000 -3.1650 21.3333
v  -4.1423 0.0000 16.0000
v  -7.0000 -3.1650 16.0000
v  -4.1423 0.0000 10.6667
v  -7.0000 -3.1650 10.6667
v  -4.1423 0.0000 5.3333
v  -7.0000 -3.1650 5.3333
v  -4.1423 0.0000 -32.0000
v  -7.0000 -3.1650 -32.0000
v  -7.0000 -3.1650 -26.6667
v  -4.1423 0.0000 -26.6667
v  -7.0000 -3.1650 -21.3333
v  -4.1423 0.0000 -21.3333
v  -7.0000 -3.1650 -16.0000
v  -4.1423 0.0000 -16.0000
v  -7.0000 -3.1650 -10.6667
v  -4.1423 0.0000 -10.6667
v  -2.5000 -0.0000 -32.0000
v  -2.5000 -0.0000 -26.6667
v  -2.5000 0.0000 -21.3333
v  -2.5000 0.0000 -16.0000
v  -2.5000 0.0000 -10.6667
v  -2.5000 0.0000 -5.3333
# 143 vertices

vn 0.0000 1.0000 -0.0000
vn 0.1989 0.9800 -0.0000
vn -0.1989 0.9800 -0.0000
vn -0.0000 1.0000 -0.0000
vn -1.0000 0.0000 -0.0000
vn 0.7422 0.6702 -0.0000
vn 0.5798 0.8148 -0.0000
vn -0.7422 0.6702 -0.0000
vn -0.5798 0.8148 -0.0000
vn 1.0000 0.0000 -0.0000
# 10 vertex normals

vt 0.7721 1.0000 0.0000
vt 0.7721 0.0000 0.0000
vt 0.2291 0.0000 0.0000
vt 0.2291 1.0000 0.0000
vt 0.7731 1.0000 0.0000
vt 0.7731 0.0000 0.0000
vt 0.9523 0.0000 0.0000
vt 0.9523 1.0000 0.0000
vt 0.2271 1.0000 0.0000
vt 0.0476 1.0000 0.0000
vt 0.0476 0.0000 0.0000
vt 0.2271 0.0000 0.0000
vt 0.7731 1.0000 0.0000
vt 0.7731 0.0000 0.0000
vt 0.9523 0.0000 0.0000
vt 0.9270 1.0000 0.0000
vt 0.2271 1.0000 0.0000
vt 0.0476 1.0000 0.0000
vt 0.0730 0.0000 0.0000
vt 0.2271 0.0000 0.0000
vt 0.9270 0.0000 0.0000
vt 0.9523 1.0000 0.0000
vt 0.0730 1.0000 0.0000
vt 0.0476 0.0000 0.0000
vt 0.7731 0.9167 0.0000
vt 0.7731 0.8333 0.0000
vt 0.7731 0.7500 0.0000
vt 0.7731 0.6667 0.0000
vt 0.7731 0.5833 0.0000
vt 0.7731 0.5000 0.0000
vt 0.7731 0.4167 0.0000
vt 0.7731 0.3333 0.0000
vt 0.7731 0.2500 0.0000
vt 0.7731 0.1667 0.0000
vt 0.7731 0.0833 0.0000
vt 0.7721 0.9167 0.0000
vt 0.7721 0.8333 0.0000
vt 0.7721 0.7500 0.0000
vt 0.7721 0.6667 0.0000
vt 0.7721 0.5833 0.0000
vt 0.7721 0.5000 0.0000
vt 0.7721 0.4167 0.0000
vt 0.7721 0.3333 0.0000
vt 0.7721 0.2500 0.0000
vt 0.7721 0.1667 0.0000
vt 0.7721 0.0833 0.0000
vt 0.9523 0.0833 0.0000
vt 0.9523 0.1667 0.0000
vt 0.9523 0.2500 0.0000
vt 0.9523 0.3333 0.0000
vt 0.9523 0.4167 0.0000
vt 0.9523 0.5000 0.0000
vt 0.9523 0.5833 0.0000
vt 0.9523 0.6667 0.0000
vt 0.9523 0.7500 0.0000
vt 0.9523 0.8333 0.0000
vt 0.9523 0.9167 0.0000
vt 0.0476 0.9167 0.0000
vt 0.0476 0.8333 0.0000
vt 0.0476 0.7500 0.0000
vt 0.0476 0.6667 0.0000
vt 0.0476 0.5833 0.0000
vt 0.0476 0.5000 0.0000
vt 0.0476 0.4167 0.0000
vt 0.0476 0.3333 0.0000
vt 0.0476 0.2500 0.0000
vt 0.0476 0.1667 0.0000
vt 0.0476 0.0833 0.0000
vt 0.2271 0.0833 0.0000
vt 0.2271 0.1667 0.0000
vt 0.2271 0.2500 0.0000
vt 0.2271 0.3333 0.0000
vt 0.2271 0.4167 0.0000
vt 0.2271 0.5000 0.0000
vt 0.2271 0.5833 0.0000
vt 0.2271 0.6667 0.0000
vt 0.2271 0.7500 0.0000
vt 0.2271 0.8333 0.0000
vt 0.2271 0.9167 0.0000
vt 0.2291 0.0833 0.0000
vt 0.2291 0.1667 0.0000
vt 0.2291 0.2500 0.0000
vt 0.2291 0.3333 0.0000
vt 0.2291 0.4167 0.0000
vt 0.2291 0.5000 0.0000
vt 0.2291 0.5833 0.0000
vt 0.2291 0.6667 0.0000
vt 0.2291 0.7500 0.0000
vt 0.2291 0.8333 0.0000
vt 0.2291 0.9167 0.0000
vt 0.7731 0.9167 0.0000
vt 0.7731 0.8333 0.0000
vt 0.7731 0.7500 0.0000
vt 0.7731 0.6667 0.0000
vt 0.7731 0.5833 0.0000
vt 0.7731 0.5000 0.0000
vt 0.7731 0.4167 0.0000
vt 0.7731 0.3333 0.0000
vt 0.7731 0.2500 0.0000
vt 0.7731 0.1667 0.0000
vt 0.7731 0.0833 0.0000
vt 0.9270 0.0833 0.0000
vt 0.9270 0.1667 0.0000
vt 0.9270 0.2500 0.0000
vt 0.9270 0.3333 0.0000
vt 0.9270 0.4167 0.0000
vt 0.9270 0.5000 0.0000
vt 0.9270 0.5833 0.0000
vt 0.9270 0.6667 0.0000
vt 0.9270 0.7500 0.0000
vt 0.9270 0.8333 0.0000
vt 0.9270 0.9167 0.0000
vt 0.0730 0.9167 0.0000
vt 0.0730 0.8333 0.0000
vt 0.0730 0.7500 0.0000
vt 0.0730 0.6667 0.0000
vt 0.0730 0.5833 0.0000
vt 0.0730 0.5000 0.0000
vt 0.0730 0.4167 0.0000
vt 0.0730 0.3333 0.0000
vt 0.0730 0.2500 0.0000
vt 0.0730 0.1667 0.0000
vt 0.0730 0.0833 0.0000
vt 0.2271 0.0833 0.0000
vt 0.2271 0.1667 0.0000
vt 0.2271 0.2500 0.0000
vt 0.2271 0.3333 0.0000
vt 0.2271 0.4167 0.0000
vt 0.2271 0.5000 0.0000
vt 0.2271 0.5833 0.0000
vt 0.2271 0.6667 0.0000
vt 0.2271 0.7500 0.0000
vt 0.2271 0.8333 0.0000
vt 0.2271 0.9167 0.0000
vt 0.9523 0.0833 0.0000
vt 0.9523 0.1667 0.0000
vt 0.9523 0.2500 0.0000
vt 0.9523 0.3333 0.0000
vt 0.9523 0.4167 0.0000
vt 0.9523 0.5000 0.0000
vt 0.9523 0.5833 0.0000
vt 0.9523 0.6667 0.0000
vt 0.9523 0.7500 0.0000
vt 0.9523 0.8333 0.0000
vt 0.9523 0.9167 0.0000
vt 0.0476 0.9167 0.0000
vt 0.0476 0.8333 0.0000
vt 0.0476 0.7500 0.0000
vt 0.0476 0.6667 0.0000
vt 0.0476 0.5833 0.0000
vt 0.0476 0.5000 0.0000
vt 0.0476 0.4167 0.0000
vt 0.0476 0.3333 0.0000
vt 0.0476 0.2500 0.0000
vt 0.0476 0.1667 0.0000
vt 0.0476 0.0833 0.0000
vt 0.5006 0.0000 0.0000
vt 0.5006 1.0000 0.0000
vt 0.5006 0.9167 0.0000
vt 0.5006 0.8333 0.0000
vt 0.5006 0.7500 0.0000
vt 0.5006 0.6667 0.0000
vt 0.5006 0.5833 0.0000
vt 0.5006 0.5000 0.0000
vt 0.5006 0.0833 0.0000
vt 0.5006 0.1667 0.0000
vt 0.5006 0.2500 0.0000
vt 0.5006 0.3333 0.0000
vt 0.5006 0.4167 0.0000
# 169 texture coords

g Plane001
s 1
f 1/96/1 2/107/2 3/108/2 
f 3/108/2 4/95/1 1/96/1 
f 5/118/3 6/129/4 7/130/4 
f 7/130/4 8/117/3 5/118/3 
f 9/41/4 10/164/1 11/169/1 
f 11/169/1 12/42/4 9/41/4 
s 2
f 9/30/5 1/96/5 4/95/5 
f 4/95/5 13/29/5 9/30/5 
s 1
f 14/52/6 15/140/7 16/139/7 
f 16/139/7 17/51/6 14/52/6 
f 18/63/8 19/151/9 20/150/9 
f 20/150/9 21/62/8 18/63/8 
s 2
f 22/74/10 6/129/10 23/128/10 
f 23/128/10 24/73/10 22/74/10 
s 1
f 15/140/7 2/107/2 25/106/2 
f 25/106/2 16/139/7 15/140/7 
f 19/151/9 5/118/3 8/117/3 
f 8/117/3 20/150/9 19/151/9 
f 26/14/1 27/21/2 28/102/2 
f 28/102/2 29/101/1 26/14/1 
f 29/101/1 28/102/2 30/103/2 
f 30/103/2 31/100/1 29/101/1 
f 31/100/1 30/103/2 32/104/2 
f 32/104/2 33/99/1 31/100/1 
f 33/99/1 32/104/2 34/105/2 
f 34/105/2 35/98/1 33/99/1 
f 35/98/1 34/105/2 25/106/2 
f 25/106/2 36/97/1 35/98/1 
f 36/97/1 25/106/2 2/107/2 
f 2/107/2 1/96/1 36/97/1 
f 37/16/2 38/13/4 39/91/4 
f 39/91/4 40/112/2 37/16/2 
f 40/112/2 39/91/4 41/92/1 
f 41/92/1 42/111/2 40/112/2 
f 42/111/2 41/92/1 43/93/1 
f 43/93/1 44/110/2 42/111/2 
f 44/110/2 43/93/1 45/94/1 
f 45/94/1 46/109/2 44/110/2 
f 46/109/2 45/94/1 4/95/1 
f 4/95/1 3/108/2 46/109/2 
f 47/19/3 48/20/4 49/124/4 
f 49/124/4 50/123/3 47/19/3 
f 50/123/3 49/124/4 51/125/4 
f 51/125/4 52/122/3 50/123/3 
f 52/122/3 51/125/4 53/126/4 
f 53/126/4 54/121/3 52/122/3 
f 54/121/3 53/126/4 55/127/4 
f 55/127/4 56/120/3 54/121/3 
f 56/120/3 55/127/4 23/128/4 
f 23/128/4 57/119/3 56/120/3 
f 57/119/3 23/128/4 6/129/4 
f 6/129/4 5/118/3 57/119/3 
f 58/17/1 59/23/3 60/113/3 
f 60/113/3 61/134/1 58/17/1 
f 61/134/1 60/113/3 62/114/3 
f 62/114/3 63/133/4 61/134/1 
f 63/133/4 62/114/3 64/115/3 
f 64/115/3 65/132/4 63/133/4 
f 65/132/4 64/115/3 66/116/3 
f 66/116/3 67/131/4 65/132/4 
f 67/131/4 66/116/3 8/117/3 
f 8/117/3 7/130/4 67/131/4 
f 68/1/1 69/158/1 70/159/1 
f 70/159/1 71/36/4 68/1/1 
f 71/36/4 70/159/1 72/160/1 
f 72/160/1 73/37/4 71/36/4 
f 73/37/4 72/160/1 74/161/1 
f 74/161/1 75/38/1 73/37/4 
f 75/38/1 74/161/1 76/162/1 
f 76/162/1 77/39/1 75/38/1 
f 77/39/1 76/162/1 78/163/1 
f 78/163/1 13/40/1 77/39/1 
f 13/40/1 78/163/1 10/164/1 
f 10/164/1 9/41/4 13/40/1 
f 79/3/1 80/157/1 81/165/1 
f 81/165/1 82/80/4 79/3/1 
f 82/80/4 81/165/1 83/166/1 
f 83/166/1 84/81/4 82/80/4 
f 84/81/4 83/166/1 85/167/1 
f 85/167/1 86/82/1 84/81/4 
f 86/82/1 85/167/1 87/168/1 
f 87/168/1 88/83/1 86/82/1 
f 88/83/1 87/168/1 11/169/1 
f 11/169/1 24/84/1 88/83/1 
s 2
f 89/6/5 26/14/5 29/101/5 
f 29/101/5 90/35/5 89/6/5 
f 90/35/5 29/101/5 31/100/5 
f 31/100/5 91/34/5 90/35/5 
f 91/34/5 31/100/5 33/99/5 
f 33/99/5 92/33/5 91/34/5 
f 92/33/5 33/99/5 35/98/5 
f 35/98/5 93/32/5 92/33/5 
f 93/32/5 35/98/5 36/97/5 
f 36/97/5 12/31/5 93/32/5 
f 12/31/5 36/97/5 1/96/5 
f 1/96/5 9/30/5 12/31/5 
f 38/13/5 68/5/5 71/25/5 
f 71/25/5 39/91/5 38/13/5 
f 39/91/5 71/25/5 73/26/5 
f 73/26/5 41/92/5 39/91/5 
f 41/92/5 73/26/5 75/27/5 
f 75/27/5 43/93/5 41/92/5 
f 43/93/5 75/27/5 77/28/5 
f 77/28/5 45/94/5 43/93/5 
f 45/94/5 77/28/5 13/29/5 
f 13/29/5 4/95/5 45/94/5 
s 1
f 94/8/6 95/22/7 96/145/7 
f 96/145/7 97/57/6 94/8/6 
f 97/57/6 96/145/7 98/144/7 
f 98/144/7 99/56/6 97/57/6 
f 99/56/6 98/144/7 100/143/7 
f 100/143/7 101/55/6 99/56/6 
f 101/55/6 100/143/7 102/142/7 
f 102/142/7 103/54/6 101/55/6 
f 103/54/6 102/142/7 104/141/7 
f 104/141/7 105/53/6 103/54/6 
f 105/53/6 104/141/7 15/140/7 
f 15/140/7 14/52/6 105/53/6 
f 106/15/7 107/7/6 108/47/6 
f 108/47/6 109/135/7 106/15/7 
f 109/135/7 108/47/6 110/48/6 
f 110/48/6 111/136/7 109/135/7 
f 111/136/7 110/48/6 112/49/6 
f 112/49/6 113/137/7 111/136/7 
f 113/137/7 112/49/6 114/50/6 
f 114/50/6 115/138/7 113/137/7 
f 115/138/7 114/50/6 17/51/6 
f 17/51/6 16/139/7 115/138/7 
f 116/11/8 117/24/9 118/156/9 
f 118/156/9 119/68/8 116/11/8 
f 119/68/8 118/156/9 120/155/9 
f 120/155/9 121/67/8 119/68/8 
f 121/67/8 120/155/9 122/154/9 
f 122/154/9 123/66/8 121/67/8 
f 123/66/8 122/154/9 124/153/9 
f 124/153/9 125/65/8 123/66/8 
f 125/65/8 124/153/9 126/152/9 
f 126/152/9 127/64/8 125/65/8 
f 127/64/8 126/152/9 19/151/9 
f 19/151/9 18/63/8 127/64/8 
f 128/18/9 129/10/8 130/58/8 
f 130/58/8 131/146/9 128/18/9 
f 131/146/9 130/58/8 132/59/8 
f 132/59/8 133/147/9 131/146/9 
f 133/147/9 132/59/8 134/60/8 
f 134/60/8 135/148/9 133/147/9 
f 135/148/9 134/60/8 136/61/8 
f 136/61/8 137/149/9 135/148/9 
f 137/149/9 136/61/8 21/62/8 
f 21/62/8 20/150/9 137/149/9 
s 2
f 138/9/10 58/17/10 61/134/10 
f 61/134/10 139/79/10 138/9/10 
f 139/79/10 61/134/10 63/133/10 
f 63/133/10 140/78/10 139/79/10 
f 140/78/10 63/133/10 65/132/10 
f 65/132/10 141/77/10 140/78/10 
f 141/77/10 65/132/10 67/131/10 
f 67/131/10 142/76/10 141/77/10 
f 142/76/10 67/131/10 7/130/10 
f 7/130/10 143/75/10 142/76/10 
f 143/75/10 7/130/10 6/129/10 
f 6/129/10 22/74/10 143/75/10 
f 48/20/10 79/12/10 82/69/10 
f 82/69/10 49/124/10 48/20/10 
f 49/124/10 82/69/10 84/70/10 
f 84/70/10 51/125/10 49/124/10 
f 51/125/10 84/70/10 86/71/10 
f 86/71/10 53/126/10 51/125/10 
f 53/126/10 86/71/10 88/72/10 
f 88/72/10 55/127/10 53/126/10 
f 55/127/10 88/72/10 24/73/10 
f 24/73/10 23/128/10 55/127/10 
s 1
f 95/22/7 37/16/2 40/112/2 
f 40/112/2 96/145/7 95/22/7 
f 96/145/7 40/112/2 42/111/2 
f 42/111/2 98/144/7 96/145/7 
f 98/144/7 42/111/2 44/110/2 
f 44/110/2 100/143/7 98/144/7 
f 100/143/7 44/110/2 46/109/2 
f 46/109/2 102/142/7 100/143/7 
f 102/142/7 46/109/2 3/108/2 
f 3/108/2 104/141/7 102/142/7 
f 104/141/7 3/108/2 2/107/2 
f 2/107/2 15/140/7 104/141/7 
f 27/21/2 106/15/7 109/135/7 
f 109/135/7 28/102/2 27/21/2 
f 28/102/2 109/135/7 111/136/7 
f 111/136/7 30/103/2 28/102/2 
f 30/103/2 111/136/7 113/137/7 
f 113/137/7 32/104/2 30/103/2 
f 32/104/2 113/137/7 115/138/7 
f 115/138/7 34/105/2 32/104/2 
f 34/105/2 115/138/7 16/139/7 
f 16/139/7 25/106/2 34/105/2 
f 117/24/9 47/19/3 50/123/3 
f 50/123/3 118/156/9 117/24/9 
f 118/156/9 50/123/3 52/122/3 
f 52/122/3 120/155/9 118/156/9 
f 120/155/9 52/122/3 54/121/3 
f 54/121/3 122/154/9 120/155/9 
f 122/154/9 54/121/3 56/120/3 
f 56/120/3 124/153/9 122/154/9 
f 124/153/9 56/120/3 57/119/3 
f 57/119/3 126/152/9 124/153/9 
f 126/152/9 57/119/3 5/118/3 
f 5/118/3 19/151/9 126/152/9 
f 59/23/3 128/18/9 131/146/9 
f 131/146/9 60/113/3 59/23/3 
f 60/113/3 131/146/9 133/147/9 
f 133/147/9 62/114/3 60/113/3 
f 62/114/3 133/147/9 135/148/9 
f 135/148/9 64/115/3 62/114/3 
f 64/115/3 135/148/9 137/149/9 
f 137/149/9 66/116/3 64/115/3 
f 66/116/3 137/149/9 20/150/9 
f 20/150/9 8/117/3 66/116/3 
f 22/85/1 24/84/1 11/169/1 
f 11/169/1 10/164/1 22/85/1 
f 138/4/1 139/90/1 70/159/1 
f 70/159/1 69/158/1 138/4/1 
f 139/90/1 140/89/1 72/160/1 
f 72/160/1 70/159/1 139/90/1 
f 140/89/1 141/88/1 74/161/1 
f 74/161/1 72/160/1 140/89/1 
f 141/88/1 142/87/1 76/162/1 
f 76/162/1 74/161/1 141/88/1 
f 142/87/1 143/86/1 78/163/1 
f 78/163/1 76/162/1 142/87/1 
f 143/86/1 22/85/1 10/164/1 
f 10/164/1 78/163/1 143/86/1 
f 89/2/1 90/46/1 81/165/1 
f 81/165/1 80/157/1 89/2/1 
f 90/46/1 91/45/1 83/166/1 
f 83/166/1 81/165/1 90/46/1 
f 91/45/1 92/44/1 85/167/1 
f 85/167/1 83/166/1 91/45/1 
f 92/44/1 93/43/4 87/168/1 
f 87/168/1 85/167/1 92/44/1 
f 93/43/4 12/42/4 11/169/1 
f 11/169/1 87/168/1 93/43/4 
# 240 faces

